<svg width="16" height="16" viewBox="0 0 16 16" fill="none" xmlns="http://www.w3.org/2000/svg">
<path fill-rule="evenodd" clip-rule="evenodd" d="M8 14C8.307 14 8.60699 13.981 8.90399 13.952L13 16V12.459C14.828 11.176 16 9.209 16 7C16 3.134 12.419 0 8 0C3.582 0 0 3.134 0 7C0 10.866 3.582 14 8 14ZM8 0.999023C11.866 0.999023 15 3.68602 15 6.99902C15 9.03102 13.807 10.808 12 11.89V11.9979V14.4979L9 12.999C9 12.999 9.147 12.999 8 12.999C4.135 12.999 1 10.312 1 6.99902C1 3.68602 4.135 0.999023 8 0.999023Z" fill="#2A2A2A"/>
</svg>
