<svg width="77" height="28" viewBox="0 0 77 28" fill="none" xmlns="http://www.w3.org/2000/svg">
<path d="M3.762 18.074H7.902V20H1.242L1.242 7.436L3.762 7.436L3.762 18.074ZM10.7817 8.84C10.3377 8.84 9.96572 8.702 9.66572 8.426C9.37772 8.138 9.23372 7.784 9.23372 7.364C9.23372 6.944 9.37772 6.596 9.66572 6.32C9.96572 6.032 10.3377 5.888 10.7817 5.888C11.2257 5.888 11.5917 6.032 11.8797 6.32C12.1797 6.596 12.3297 6.944 12.3297 7.364C12.3297 7.784 12.1797 8.138 11.8797 8.426C11.5917 8.702 11.2257 8.84 10.7817 8.84ZM12.0237 10.028L12.0237 20L9.50372 20L9.50372 10.028H12.0237ZM18.6715 17.678L21.1915 10.028H23.8915L20.2195 20H17.1235L13.4515 10.028H16.1515L18.6715 17.678ZM34.5589 14.78C34.5589 15.116 34.5349 15.428 34.4869 15.716L27.1969 15.716C27.2449 16.448 27.4909 17.024 27.9349 17.444C28.3789 17.864 28.9309 18.074 29.5909 18.074C30.5269 18.074 31.1929 17.672 31.5889 16.868H34.3069C34.0189 17.828 33.4669 18.62 32.6509 19.244C31.8349 19.856 30.8329 20.162 29.6449 20.162C28.6849 20.162 27.8209 19.952 27.0529 19.532C26.2969 19.1 25.7029 18.494 25.2709 17.714C24.8509 16.934 24.6409 16.034 24.6409 15.014C24.6409 13.982 24.8509 13.076 25.2709 12.296C25.6909 11.516 26.2789 10.916 27.0349 10.496C27.7909 10.076 28.6609 9.866 29.6449 9.866C30.5929 9.866 31.4389 10.07 32.1829 10.478C32.9389 10.886 33.5209 11.462 33.9289 12.206C34.3489 12.95 34.5589 13.808 34.5589 14.78ZM31.9489 14.186C31.9369 13.49 31.7029 12.944 31.2469 12.548C30.8029 12.14 30.2449 11.936 29.5729 11.936C28.9369 11.936 28.4029 12.14 27.9709 12.548C27.5389 12.944 27.2809 13.49 27.1969 14.186L31.9489 14.186Z" fill="#C31815"/>
<path fill-rule="evenodd" clip-rule="evenodd" d="M63 21C66.866 21 70 17.866 70 14C70 10.134 66.866 7 63 7C59.134 7 56 10.134 56 14C56 17.866 59.134 21 63 21Z" fill="#C31815"/>
<path opacity="0.8" fill-rule="evenodd" clip-rule="evenodd" d="M63 24C68.5228 24 73 19.5228 73 14C73 8.47715 68.5228 4 63 4C57.4772 4 53 8.47715 53 14C53 19.5228 57.4772 24 63 24Z" stroke="#C31815" stroke-width="0.5"/>
<path opacity="0.4" fill-rule="evenodd" clip-rule="evenodd" d="M63 27C70.1797 27 76 21.1797 76 14C76 6.8203 70.1797 1 63 1C55.8203 1 50 6.8203 50 14C50 21.1797 55.8203 27 63 27Z" stroke="#C31815" stroke-width="0.5"/>
</svg>
