<svg width="36" height="27" viewBox="0 0 36 27" fill="none" xmlns="http://www.w3.org/2000/svg">
<g filter="url(#filter0_i_1_116)">
<path d="M14.0901 9.9257L13.2122 11.2353C13.2122 11.2357 13.2122 11.2361 13.2122 11.2364C13.2122 11.2367 13.2122 11.2371 13.2116 11.2374C13.2116 11.2376 13.2109 11.2378 13.2109 11.238C13.2103 11.2381 13.2103 11.2382 13.2097 11.2382L10.3698 15.4776L6.64892 9.9257L0 0H7.43794L12.3925 7.39545C12.3951 7.39832 12.3976 7.39832 12.3976 7.4012L14.0901 9.9257Z" fill="url(#paint0_linear_1_116)"/>
<path d="M10.3698 15.4776L10.2548 15.6499L10.0203 15.9974C10.0178 16.0003 10.0178 16.0031 10.0152 16.006L8.58858 18.137L7.43794 19.8545H0L0.619596 18.9298C0.619788 18.9275 0.620744 18.9255 0.622214 18.924H0.624831L5.34239 11.8758H5.34494V11.8729L5.3475 11.87L5.50659 11.6317L6.48792 10.1643L6.64892 9.92599L10.3698 15.4776Z" fill="url(#paint1_linear_1_116)"/>
<g style="mix-blend-mode:multiply" opacity="0.15">
<g style="mix-blend-mode:multiply" opacity="0.15">
<g style="mix-blend-mode:multiply" opacity="0.15">
<path d="M10.3698 15.4776L10.2548 15.6499L10.021 15.9974C10.0184 16.0003 10.0184 16.0031 10.0159 16.006L8.58858 18.137L8.49786 17.9446L5.50659 11.6317L6.48792 10.1643L6.64955 9.92599L10.3698 15.4776Z" fill="black"/>
</g>
</g>
</g>
<g style="mix-blend-mode:multiply" opacity="0.25">
<g style="mix-blend-mode:multiply" opacity="0.25">
<g style="mix-blend-mode:multiply" opacity="0.25">
<path d="M13.2097 11.2382L10.3698 15.4776L10.2548 15.6499L10.2184 15.5982C9.77564 14.9635 9.32842 14.3345 8.89078 13.6912C8.45058 13.0536 8.00528 12.4189 7.57339 11.7727L6.48792 10.1643L6.64892 9.92599L0 0C0.468625 0.61461 0.921598 1.24358 1.37719 1.86681C1.83802 2.49004 2.2832 3.12475 2.73362 3.75373C3.62659 5.02028 4.51087 6.29354 5.38647 7.5735L6.68853 9.5035L7.97972 11.4421C8.41161 12.0883 8.83072 12.7431 9.25814 13.3922C9.63508 13.9695 10.005 14.5525 10.3775 15.1326L10.9576 14.317C11.2029 13.9724 11.4502 13.6248 11.7025 13.2831C12.2047 12.5995 12.6941 11.9131 13.2097 11.2382Z" fill="black"/>
</g>
</g>
</g>
<g style="mix-blend-mode:multiply" opacity="0.25">
<g style="mix-blend-mode:multiply" opacity="0.25">
<g style="mix-blend-mode:multiply" opacity="0.25">
<path d="M10.0152 16.0058L8.58858 18.1368L7.43794 19.8543H0C0.619595 19.7767 1.23925 19.7279 1.85885 19.6877C2.16864 19.6675 2.47851 19.6504 2.78831 19.6389C3.0981 19.6274 3.4079 19.6073 3.71769 19.6015C4.33991 19.5814 4.95957 19.5728 5.57942 19.5699C5.88928 19.5641 6.1985 19.5699 6.50836 19.5728C6.77925 19.5756 7.05014 19.5756 7.32103 19.5814L7.90944 18.7485C8.10686 18.4814 8.29981 18.2115 8.49786 17.9443C8.52917 17.9013 8.56303 17.8582 8.59369 17.8151C9.05242 17.2008 9.52072 16.5945 10.0152 16.0058Z" fill="black"/>
</g>
</g>
</g>
<g style="mix-blend-mode:screen" opacity="0.4">
<g style="mix-blend-mode:screen" opacity="0.4">
<g style="mix-blend-mode:screen" opacity="0.4">
<path d="M0.622262 18.924H0.624861L0.619596 18.9298C0.619802 18.9276 0.620758 18.9255 0.622262 18.924Z" fill="white"/>
</g>
</g>
</g>
<g style="mix-blend-mode:screen" opacity="0.4">
<g style="mix-blend-mode:screen" opacity="0.4">
<g style="mix-blend-mode:screen" opacity="0.4">
<path d="M5.34494 11.8757C5.31875 11.9332 5.09763 12.4128 4.72797 13.0705C4.53272 13.4238 4.29838 13.8287 4.03541 14.2538C3.90265 14.4663 3.77251 14.6874 3.62671 14.9057C3.48092 15.124 3.33775 15.348 3.19195 15.5692C3.04092 15.7903 2.8925 16.0086 2.74415 16.224C2.59574 16.4394 2.44215 16.6433 2.29891 16.8443C2.00732 17.2464 1.72621 17.614 1.47883 17.9242C1.01545 18.5043 0.666554 18.8806 0.624899 18.9237L5.34239 11.8757C5.34494 11.8729 5.34494 11.8757 5.34494 11.8757Z" fill="white"/>
</g>
</g>
</g>
<g style="mix-blend-mode:screen" opacity="0.4">
<g style="mix-blend-mode:screen" opacity="0.4">
<g style="mix-blend-mode:screen" opacity="0.4">
<path d="M12.3925 7.39545C11.9261 6.82388 11.4783 6.23513 11.0413 5.64638C10.5985 5.05187 10.1666 4.45163 9.73667 3.8485C9.30733 3.24538 8.88567 2.63364 8.47167 2.01903C8.0762 1.44175 7.69606 0.855859 7.30761 0.272841L6.06625 0.246993L4.69398 0.195297C3.78018 0.149345 2.86637 0.0976483 1.95257 0H7.43794L12.3925 7.39545Z" fill="white"/>
</g>
</g>
</g>
<g style="mix-blend-mode:screen" opacity="0.3">
<g style="mix-blend-mode:screen" opacity="0.3">
<g style="mix-blend-mode:screen" opacity="0.3">
<path d="M13.1189 9.92569L1.54911 0.861603H7.04503L11.799 7.95834L11.8041 7.96408L13.1189 9.92569Z" fill="white"/>
</g>
</g>
</g>
<path d="M23 9.92568L22.1228 11.2353C22.1228 11.2361 22.1222 11.2368 22.1222 11.2373C22.1215 11.2379 22.1209 11.2382 22.1203 11.2382L19.2798 15.4776L15.5595 9.92597L8.90994 0.000274658H16.3485L21.3025 7.39572C21.305 7.39859 21.3076 7.39859 21.3076 7.40147L23 9.92568Z" fill="url(#paint2_linear_1_116)"/>
<path d="M19.2798 15.4776L19.1654 15.6499L18.9309 15.9974C18.9284 16.0003 18.9284 16.0031 18.9258 16.006L17.4992 18.137L16.3485 19.8545H8.90994L9.52967 18.9298C9.53031 18.9285 9.53031 18.9274 9.53094 18.9264C9.53158 18.9254 9.53286 18.9246 9.5335 18.924L14.2511 11.8761H14.2536V11.8732L14.2562 11.8703L14.4153 11.632L15.3966 10.1643L15.5582 9.92599L19.2798 15.4776Z" fill="url(#paint3_linear_1_116)"/>
<g style="mix-blend-mode:multiply" opacity="0.15">
<g style="mix-blend-mode:multiply" opacity="0.15">
<g style="mix-blend-mode:multiply" opacity="0.15">
<path d="M19.2798 15.4776L19.1654 15.6499L18.9309 15.9974C18.9284 16.0003 18.9284 16.0031 18.9258 16.006L17.4992 18.137L17.4078 17.9446L14.4165 11.632L15.3979 10.1643L15.5595 9.92599L19.2798 15.4776Z" fill="black"/>
</g>
</g>
</g>
<g style="mix-blend-mode:multiply" opacity="0.25">
<g style="mix-blend-mode:multiply" opacity="0.25">
<g style="mix-blend-mode:multiply" opacity="0.25">
<path d="M22.1203 11.2383L19.2798 15.4777L19.1654 15.65L19.129 15.5983C18.6862 14.9636 18.2384 14.3346 17.8007 13.6913C17.3612 13.0537 16.9159 12.419 16.4833 11.7728L15.3979 10.1645L15.5595 9.92612L8.90994 0.000411987C9.37889 0.615021 9.83186 1.24399 10.2874 1.86723C10.748 2.49045 11.1933 3.12517 11.6437 3.75414C12.5369 5.0207 13.4211 6.29397 14.2964 7.57393L15.5985 9.50393L16.8897 11.4425C17.3222 12.0887 17.7413 12.7436 18.1681 13.3926C18.5457 13.9699 18.9149 14.5529 19.2874 15.1331L19.8682 14.3174C20.1129 13.9728 20.3601 13.6253 20.6125 13.2835C21.1153 12.5996 21.6047 11.9132 22.1203 11.2383Z" fill="black"/>
</g>
</g>
</g>
<g style="mix-blend-mode:multiply" opacity="0.25">
<g style="mix-blend-mode:multiply" opacity="0.25">
<g style="mix-blend-mode:multiply" opacity="0.25">
<path d="M18.9258 16.0058L17.4992 18.1368L16.3485 19.8543H8.90994C9.52967 19.7767 10.1494 19.7279 10.7691 19.6877C11.079 19.6675 11.3888 19.6504 11.6987 19.6389C12.0086 19.6274 12.3178 19.6073 12.6276 19.6015C13.2499 19.5814 13.8696 19.5728 14.4894 19.5699C14.7992 19.5641 15.1091 19.5699 15.4189 19.5728C15.6898 19.5756 15.9601 19.5756 16.231 19.5814L16.8194 18.7485C17.0174 18.4814 17.2098 18.2115 17.4078 17.9443C17.4391 17.9013 17.473 17.8582 17.5043 17.8151C17.9624 17.2008 18.4307 16.5945 18.9258 16.0058Z" fill="black"/>
</g>
</g>
</g>
<g style="mix-blend-mode:screen" opacity="0.4">
<g style="mix-blend-mode:screen" opacity="0.4">
<g style="mix-blend-mode:screen" opacity="0.4">
<path d="M9.53325 18.924L9.52839 18.9298C9.529 18.9285 9.5296 18.9272 9.53021 18.9262C9.53082 18.9252 9.53203 18.9245 9.53325 18.924Z" fill="white"/>
</g>
</g>
</g>
<g style="mix-blend-mode:screen" opacity="0.4">
<g style="mix-blend-mode:screen" opacity="0.4">
<g style="mix-blend-mode:screen" opacity="0.4">
<path d="M14.2549 11.8757C14.2293 11.9332 14.0076 12.4128 13.6384 13.0705C13.4429 13.4238 13.2084 13.8287 12.9458 14.2538C12.8129 14.4663 12.6826 14.6874 12.5369 14.9057C12.3913 15.124 12.2481 15.348 12.1018 15.5692C11.9511 15.7903 11.8028 16.0086 11.6546 16.224C11.5057 16.4394 11.3524 16.6433 11.2093 16.8443C10.9173 17.2464 10.6362 17.614 10.389 17.9242C9.92578 18.5043 9.57695 18.8806 9.53542 18.9237L14.2523 11.8757C14.2549 11.8729 14.2549 11.8757 14.2549 11.8757Z" fill="white"/>
</g>
</g>
</g>
<g style="mix-blend-mode:screen" opacity="0.4">
<g style="mix-blend-mode:screen" opacity="0.4">
<g style="mix-blend-mode:screen" opacity="0.4">
<path d="M21.3025 7.39545C20.8367 6.82388 20.3889 6.23513 19.9512 5.64638C19.5085 5.05187 19.0766 4.45163 18.6472 3.8485C18.2173 3.24538 17.7956 2.63364 17.3816 2.01903C16.9861 1.44175 16.606 0.855859 16.2182 0.272841L14.9762 0.246993L13.6039 0.195297C12.6902 0.149345 11.7766 0.0976483 10.863 0H16.3479L21.3025 7.39545Z" fill="white"/>
</g>
</g>
</g>
<g style="mix-blend-mode:screen" opacity="0.3">
<g style="mix-blend-mode:screen" opacity="0.3">
<g style="mix-blend-mode:screen" opacity="0.3">
<path d="M22.0302 9.92569L10.4605 0.861603H15.9562L20.7102 7.95834L20.7153 7.96408L22.0302 9.92569Z" fill="white"/>
</g>
</g>
</g>
<g filter="url(#filter1_i_1_116)">
<path d="M2.27618 21.9843V21.5H2.74612V21.9843V26.2175H2.27618V21.9843ZM11.6184 26.2175H11.2076L12.9932 21.5H13.1031L12.944 22.0398L12.2805 24.2909L12.1113 24.8652H12.088L11.9713 25.2012L11.6184 26.2175ZM13.9026 22.0378L13.7417 21.5H13.8626L15.6229 26.2175H15.2467L14.885 25.198L14.7669 24.8652H14.7489L14.5764 24.2889L13.9026 22.0378ZM17.9496 24.6291V26.2175H17.4797V21.5H17.9496V21.9073V23.7218V24.1291V24.2218V24.6291ZM20.2305 21.7468C20.1306 21.6668 20.0159 21.6073 19.8954 21.5625C19.9578 21.573 20.0151 21.5846 20.0673 21.5972L20.0697 21.5978C20.3191 21.6569 20.5293 21.7566 20.7076 21.8932L20.7076 21.8933L20.7138 21.8979C20.9963 22.1076 21.1345 22.3781 21.1345 22.7632C21.1345 23.2875 20.9605 23.5807 20.6742 23.7608L20.6741 23.7607L20.666 23.766C20.5529 23.8402 20.411 23.908 20.2348 23.9652L19.5133 24.1993L20.0129 24.7701L21.3365 26.2823L21.1568 26.3743L19.3921 24.2969L19.3021 24.1908C19.3569 24.1853 19.4096 24.1791 19.46 24.1722C19.6889 24.1404 19.9282 24.0857 20.1154 23.971C20.5312 23.7281 20.7156 23.3182 20.7156 22.8573C20.7156 22.4294 20.5814 22.0226 20.2305 21.7468ZM23.881 26.2175H23.411V21.5H23.881V26.2175ZM7.19139 21.5H7.30137L7.14226 22.0398L6.47871 24.2909L6.30942 24.8652H6.2862L6.16954 25.2012L5.81662 26.2175H5.40581L7.19139 21.5ZM8.94707 24.8652L8.77459 24.2889L8.10086 22.0378L7.93991 21.5H8.06077L9.82109 26.2175H9.44492L9.08324 25.198L8.96517 24.8652H8.94707ZM26.6725 24.2354V26.2175H26.1924V21.5H26.6725V21.9843V23.2767V23.7354V23.7767V24.2354ZM32.4123 21.5H32.5222L32.3631 22.0398L31.6996 24.2909L31.5303 24.8652H31.507L31.3904 25.2012L31.0375 26.2175H30.6267L32.4123 21.5ZM34.1679 24.8652L33.9954 24.2889L33.3217 22.0378L33.1608 21.5H33.2816L35.0419 26.2175H34.6658L34.3041 25.198L34.186 24.8652H34.1679Z" fill="url(#paint4_linear_1_116)" stroke="#FA6800"/>
<path d="M2.27618 21.9843V21.5H2.74612V21.9843V26.2175H2.27618V21.9843ZM11.6184 26.2175H11.2076L12.9932 21.5H13.1031L12.944 22.0398L12.2805 24.2909L12.1113 24.8652H12.088L11.9713 25.2012L11.6184 26.2175ZM13.9026 22.0378L13.7417 21.5H13.8626L15.6229 26.2175H15.2467L14.885 25.198L14.7669 24.8652H14.7489L14.5764 24.2889L13.9026 22.0378ZM17.9496 24.6291V26.2175H17.4797V21.5H17.9496V21.9073V23.7218V24.1291V24.2218V24.6291ZM20.2305 21.7468C20.1306 21.6668 20.0159 21.6073 19.8954 21.5625C19.9578 21.573 20.0151 21.5846 20.0673 21.5972L20.0697 21.5978C20.3191 21.6569 20.5293 21.7566 20.7076 21.8932L20.7076 21.8933L20.7138 21.8979C20.9963 22.1076 21.1345 22.3781 21.1345 22.7632C21.1345 23.2875 20.9605 23.5807 20.6742 23.7608L20.6741 23.7607L20.666 23.766C20.5529 23.8402 20.411 23.908 20.2348 23.9652L19.5133 24.1993L20.0129 24.7701L21.3365 26.2823L21.1568 26.3743L19.3921 24.2969L19.3021 24.1908C19.3569 24.1853 19.4096 24.1791 19.46 24.1722C19.6889 24.1404 19.9282 24.0857 20.1154 23.971C20.5312 23.7281 20.7156 23.3182 20.7156 22.8573C20.7156 22.4294 20.5814 22.0226 20.2305 21.7468ZM23.881 26.2175H23.411V21.5H23.881V26.2175ZM7.19139 21.5H7.30137L7.14226 22.0398L6.47871 24.2909L6.30942 24.8652H6.2862L6.16954 25.2012L5.81662 26.2175H5.40581L7.19139 21.5ZM8.94707 24.8652L8.77459 24.2889L8.10086 22.0378L7.93991 21.5H8.06077L9.82109 26.2175H9.44492L9.08324 25.198L8.96517 24.8652H8.94707ZM26.6725 24.2354V26.2175H26.1924V21.5H26.6725V21.9843V23.2767V23.7354V23.7767V24.2354ZM32.4123 21.5H32.5222L32.3631 22.0398L31.6996 24.2909L31.5303 24.8652H31.507L31.3904 25.2012L31.0375 26.2175H30.6267L32.4123 21.5ZM34.1679 24.8652L33.9954 24.2889L33.3217 22.0378L33.1608 21.5H33.2816L35.0419 26.2175H34.6658L34.3041 25.198L34.186 24.8652H34.1679Z" fill="black" fill-opacity="0.2" stroke="#FA6800"/>
</g>
</g>
<defs>
<filter id="filter0_i_1_116" x="0" y="0" width="35.7622" height="30.9636" filterUnits="userSpaceOnUse" color-interpolation-filters="sRGB">
<feFlood flood-opacity="0" result="BackgroundImageFix"/>
<feBlend mode="normal" in="SourceGraphic" in2="BackgroundImageFix" result="shape"/>
<feColorMatrix in="SourceAlpha" type="matrix" values="0 0 0 0 0 0 0 0 0 0 0 0 0 0 0 0 0 0 127 0" result="hardAlpha"/>
<feOffset dy="3.96364"/>
<feGaussianBlur stdDeviation="1.98182"/>
<feComposite in2="hardAlpha" operator="arithmetic" k2="-1" k3="1"/>
<feColorMatrix type="matrix" values="0 0 0 0 0 0 0 0 0 0 0 0 0 0 0 0 0 0 0.25 0"/>
<feBlend mode="normal" in2="shape" result="effect1_innerShadow_1_116"/>
</filter>
<filter id="filter1_i_1_116" x="0" y="21" width="35.7622" height="9.96364" filterUnits="userSpaceOnUse" color-interpolation-filters="sRGB">
<feFlood flood-opacity="0" result="BackgroundImageFix"/>
<feBlend mode="normal" in="SourceGraphic" in2="BackgroundImageFix" result="shape"/>
<feColorMatrix in="SourceAlpha" type="matrix" values="0 0 0 0 0 0 0 0 0 0 0 0 0 0 0 0 0 0 127 0" result="hardAlpha"/>
<feOffset dy="3.96364"/>
<feGaussianBlur stdDeviation="1.98182"/>
<feComposite in2="hardAlpha" operator="arithmetic" k2="-1" k3="1"/>
<feColorMatrix type="matrix" values="0 0 0 0 0 0 0 0 0 0 0 0 0 0 0 0 0 0 0.25 0"/>
<feBlend mode="normal" in2="shape" result="effect1_innerShadow_1_116"/>
</filter>
<linearGradient id="paint0_linear_1_116" x1="7.04503" y1="0.0773877" x2="7.04503" y2="13.9762" gradientUnits="userSpaceOnUse">
<stop stop-color="#FCC400"/>
<stop offset="0.162" stop-color="#FBC000"/>
<stop offset="0.307" stop-color="#FBB500"/>
<stop offset="0.446" stop-color="#FBA300"/>
<stop offset="0.581" stop-color="#FA8900"/>
<stop offset="0.712" stop-color="#FA6800"/>
<stop offset="0.842" stop-color="#F93F00"/>
<stop offset="0.967" stop-color="#F81000"/>
<stop offset="1" stop-color="#F80300"/>
</linearGradient>
<linearGradient id="paint1_linear_1_116" x1="5.18458" y1="20.1127" x2="5.18458" y2="12.4379" gradientUnits="userSpaceOnUse">
<stop stop-color="#9A3D2D"/>
<stop offset="1" stop-color="#1E4450"/>
</linearGradient>
<linearGradient id="paint2_linear_1_116" x1="15.955" y1="0.0776614" x2="15.955" y2="13.9763" gradientUnits="userSpaceOnUse">
<stop stop-color="#FCC400"/>
<stop offset="0.162" stop-color="#FBC000"/>
<stop offset="0.307" stop-color="#FBB500"/>
<stop offset="0.446" stop-color="#FBA300"/>
<stop offset="0.581" stop-color="#FA8900"/>
<stop offset="0.712" stop-color="#FA6800"/>
<stop offset="0.842" stop-color="#F93F00"/>
<stop offset="0.967" stop-color="#F81000"/>
<stop offset="1" stop-color="#F80300"/>
</linearGradient>
<linearGradient id="paint3_linear_1_116" x1="14.0952" y1="20.1127" x2="14.0952" y2="12.4379" gradientUnits="userSpaceOnUse">
<stop stop-color="#9A3D2D"/>
<stop offset="1" stop-color="#1E4450"/>
</linearGradient>
<linearGradient id="paint4_linear_1_116" x1="32.5197" y1="24.1475" x2="33.3574" y2="24.3972" gradientUnits="userSpaceOnUse">
<stop offset="0.291667" stop-color="#FA6800"/>
<stop offset="0.447917" stop-color="#1E4450" stop-opacity="0.74"/>
</linearGradient>
</defs>
</svg>
