<svg width="132" height="43" viewBox="0 0 132 43" fill="none" xmlns="http://www.w3.org/2000/svg">
<g filter="url(#filter0_bd_1_114)">
<path d="M114.054 16.9246L112.68 19.1577C112.68 19.1583 112.68 19.159 112.68 19.1595C112.68 19.1601 112.68 19.1607 112.679 19.1612C112.679 19.1616 112.678 19.1619 112.678 19.1622C112.677 19.1624 112.677 19.1626 112.676 19.1626L108.231 26.3913L102.407 16.9246L92 0H103.642L111.397 12.6102C111.401 12.6151 111.405 12.6151 111.405 12.62L114.054 16.9246Z" fill="url(#paint0_linear_1_114)"/>
<path d="M108.231 26.3913L108.051 26.6851L107.684 27.2776C107.68 27.2825 107.68 27.2874 107.676 27.2923L105.443 30.926L103.642 33.8545H92L92.9698 32.2777C92.9701 32.2739 92.9716 32.2704 92.9739 32.2679H92.978L100.362 20.2497H100.366V20.2448L100.37 20.2399L100.619 19.8335L102.155 17.3315L102.407 16.9251L108.231 26.3913Z" fill="url(#paint1_linear_1_114)"/>
<g style="mix-blend-mode:multiply" opacity="0.15">
<g style="mix-blend-mode:multiply" opacity="0.15">
<path d="M108.231 26.3913L108.051 26.6851L107.685 27.2777C107.681 27.2825 107.681 27.2874 107.677 27.2923L105.443 30.926L105.301 30.5979L100.619 19.8335L102.155 17.3315L102.408 16.9251L108.231 26.3913Z" fill="black"/>
</g>
</g>
<g style="mix-blend-mode:multiply" opacity="0.25">
<g style="mix-blend-mode:multiply" opacity="0.25">
<path d="M112.676 19.1626L108.231 26.3913L108.051 26.6851L107.994 26.597C107.301 25.5147 106.601 24.4422 105.916 23.3452C105.227 22.2581 104.53 21.1758 103.854 20.0739L102.155 17.3315L102.407 16.9251L92 0C92.7335 1.04799 93.4425 2.12047 94.1556 3.18315C94.8769 4.24584 95.5737 5.32811 96.2787 6.40059C97.6764 8.56023 99.0605 10.7313 100.431 12.9138L102.469 16.2047L104.49 19.5103C105.166 20.6121 105.822 21.7287 106.491 22.8355C107.081 23.8198 107.66 24.8139 108.243 25.8031L109.151 24.4123C109.535 23.8247 109.922 23.2321 110.317 22.6494C111.103 21.4838 111.869 20.3134 112.676 19.1626Z" fill="black"/>
</g>
</g>
<g style="mix-blend-mode:multiply" opacity="0.25">
<g style="mix-blend-mode:multiply" opacity="0.25">
<path d="M107.676 27.2919L105.443 30.9256L103.642 33.8541H92C92.9698 33.7218 93.9397 33.6386 94.9095 33.57C95.3944 33.5357 95.8794 33.5064 96.3643 33.4868C96.8492 33.4672 97.3341 33.4329 97.819 33.4231C98.7929 33.3888 99.7628 33.3741 100.733 33.3692C101.218 33.3594 101.702 33.3692 102.187 33.3741C102.611 33.379 103.035 33.379 103.459 33.3888L104.38 31.9686C104.689 31.5132 104.991 31.0529 105.301 30.5974C105.35 30.524 105.403 30.4505 105.451 30.3771C106.169 29.3296 106.902 28.2958 107.676 27.2919Z" fill="black"/>
</g>
</g>
<g style="mix-blend-mode:screen" opacity="0.4">
<g style="mix-blend-mode:screen" opacity="0.4">
<path d="M92.9737 32.2679H92.9775L92.9698 32.2773C92.9701 32.2737 92.9715 32.2703 92.9737 32.2679Z" fill="white"/>
</g>
</g>
<g style="mix-blend-mode:screen" opacity="0.4">
<g style="mix-blend-mode:screen" opacity="0.4">
<path d="M100.366 20.2497C100.325 20.3476 99.9789 21.1655 99.4003 22.2869C99.0947 22.8893 98.7279 23.5798 98.3163 24.3046C98.1085 24.6669 97.9048 25.044 97.6766 25.4162C97.4484 25.7884 97.2243 26.1704 96.9961 26.5475C96.7597 26.9245 96.5274 27.2967 96.2952 27.664C96.0629 28.0313 95.8225 28.379 95.5983 28.7218C95.1419 29.4074 94.7019 30.0342 94.3147 30.5631C93.5894 31.5523 93.0433 32.1939 92.9781 32.2673L100.362 20.2497C100.366 20.2448 100.366 20.2497 100.366 20.2497Z" fill="white"/>
</g>
</g>
<g style="mix-blend-mode:screen" opacity="0.4">
<g style="mix-blend-mode:screen" opacity="0.4">
<path d="M111.397 12.6102C110.667 11.6356 109.966 10.6317 109.282 9.62781C108.589 8.6141 107.913 7.5906 107.24 6.56219C106.568 5.53379 105.908 4.49069 105.26 3.4427C104.641 2.45837 104.046 1.45935 103.438 0.46523L101.495 0.421156L99.3471 0.333006C97.9168 0.254652 96.4865 0.166503 95.0562 0H103.642L111.397 12.6102Z" fill="white"/>
</g>
</g>
<g style="mix-blend-mode:screen" opacity="0.3">
<g style="mix-blend-mode:screen" opacity="0.3">
<path d="M112.534 16.9246L94.4247 1.46915H103.027L110.468 13.57L110.476 13.5798L112.534 16.9246Z" fill="white"/>
</g>
</g>
<path d="M128 16.9246L126.627 19.1577C126.627 19.159 126.626 19.1603 126.626 19.1611C126.625 19.1621 126.624 19.1626 126.623 19.1626L122.177 26.3913L116.354 16.9251L105.946 0.00050354H117.589L125.343 12.6107C125.347 12.6156 125.351 12.6156 125.351 12.6205L128 16.9246Z" fill="url(#paint2_linear_1_114)"/>
<path d="M122.177 26.3913L121.998 26.6851L121.631 27.2776C121.627 27.2825 121.627 27.2874 121.623 27.2923L119.39 30.926L117.589 33.8545H105.946L106.916 32.2777C106.917 32.2756 106.917 32.2737 106.918 32.272C106.919 32.2703 106.921 32.2689 106.922 32.2679L114.306 20.2502H114.31V20.2453L114.314 20.2404L114.563 19.834L116.099 17.3315L116.352 16.9251L122.177 26.3913Z" fill="url(#paint3_linear_1_114)"/>
<g style="mix-blend-mode:multiply" opacity="0.15">
<g style="mix-blend-mode:multiply" opacity="0.15">
<path d="M122.177 26.3913L121.998 26.6851L121.631 27.2777C121.627 27.2825 121.627 27.2874 121.623 27.2923L119.39 30.926L119.247 30.5979L114.565 19.834L116.101 17.3315L116.354 16.9251L122.177 26.3913Z" fill="black"/>
</g>
</g>
<g style="mix-blend-mode:multiply" opacity="0.25">
<g style="mix-blend-mode:multiply" opacity="0.25">
<path d="M126.623 19.1628L122.177 26.3915L121.998 26.6853L121.941 26.5971C121.248 25.5149 120.547 24.4424 119.862 23.3454C119.174 22.2583 118.477 21.176 117.8 20.0741L116.101 17.3317L116.354 16.9253L105.946 0.000671387C106.68 1.04866 107.389 2.12114 108.102 3.18383C108.823 4.24651 109.52 5.32879 110.225 6.40127C111.623 8.56091 113.007 10.732 114.377 12.9145L116.415 16.2054L118.436 19.511C119.113 20.6128 119.769 21.7294 120.437 22.8361C121.028 23.8205 121.606 24.8146 122.189 25.8038L123.098 24.413C123.481 23.8254 123.868 23.2328 124.263 22.65C125.05 21.484 125.816 20.3136 126.623 19.1628Z" fill="black"/>
</g>
</g>
<g style="mix-blend-mode:multiply" opacity="0.25">
<g style="mix-blend-mode:multiply" opacity="0.25">
<path d="M121.623 27.2919L119.39 30.9256L117.589 33.8541H105.946C106.916 33.7218 107.886 33.6386 108.856 33.57C109.341 33.5357 109.826 33.5064 110.311 33.4868C110.796 33.4672 111.28 33.4329 111.765 33.4231C112.739 33.3888 113.709 33.3741 114.679 33.3692C115.164 33.3594 115.649 33.3692 116.134 33.3741C116.558 33.379 116.981 33.379 117.405 33.3888L118.326 31.9686C118.636 31.5132 118.937 31.0529 119.247 30.5974C119.296 30.524 119.349 30.4505 119.398 30.3771C120.115 29.3296 120.848 28.2958 121.623 27.2919Z" fill="black"/>
</g>
</g>
<g style="mix-blend-mode:screen" opacity="0.4">
<g style="mix-blend-mode:screen" opacity="0.4">
<path d="M106.922 32.2679L106.914 32.2773C106.915 32.2751 106.916 32.2731 106.917 32.2715C106.918 32.2698 106.92 32.2686 106.922 32.2679Z" fill="white"/>
</g>
</g>
<g style="mix-blend-mode:screen" opacity="0.4">
<g style="mix-blend-mode:screen" opacity="0.4">
<path d="M114.312 20.2497C114.272 20.3476 113.925 21.1655 113.347 22.2869C113.041 22.8893 112.674 23.5798 112.263 24.3046C112.055 24.6669 111.851 25.044 111.623 25.4162C111.395 25.7884 111.171 26.1704 110.942 26.5475C110.706 26.9245 110.474 27.2967 110.242 27.664C110.009 28.0313 109.769 28.379 109.545 28.7218C109.088 29.4074 108.648 30.0342 108.261 30.5631C107.536 31.5523 106.99 32.1939 106.925 32.2673L114.308 20.2497C114.312 20.2448 114.312 20.2497 114.312 20.2497Z" fill="white"/>
</g>
</g>
<g style="mix-blend-mode:screen" opacity="0.4">
<g style="mix-blend-mode:screen" opacity="0.4">
<path d="M125.343 12.6102C124.614 11.6356 123.913 10.6317 123.228 9.62781C122.535 8.6141 121.859 7.5906 121.187 6.56219C120.514 5.53379 119.854 4.49069 119.206 3.4427C118.587 2.45837 117.992 1.45935 117.385 0.46523L115.441 0.421156L113.293 0.333006C111.863 0.254652 110.433 0.166503 109.003 0H117.588L125.343 12.6102Z" fill="white"/>
</g>
</g>
<g style="mix-blend-mode:screen" opacity="0.3">
<g style="mix-blend-mode:screen" opacity="0.3">
<path d="M126.482 16.9246L108.373 1.46915H116.975L124.416 13.57L124.424 13.5798L126.482 16.9246Z" fill="white"/>
</g>
</g>
</g>
<g filter="url(#filter1_bd_1_114)">
<path d="M8.37585 20.9896H4.23782V18.2547H16.0098V20.9896H11.8004V34.1409H8.37585V20.9896ZM28.7963 34.1409H25.4192L24.3015 30.3834H19.7116L18.6176 34.1409H15.1455L20.1872 18.2547H23.8259L28.7963 34.1409ZM23.5643 27.7912L21.9947 21.5365L20.4488 27.7912H23.5643ZM42.3129 34.1409H38.9359L37.8181 30.3834H33.2282L32.1343 34.1409H28.6621L33.7039 18.2547H37.3425L42.3129 34.1409ZM37.0809 27.7912L35.5113 21.5365L33.9655 27.7912H37.0809ZM47.815 28.3381H47.2205V34.1409H43.7959V18.2547H48.3858C49.5907 18.2547 50.5499 18.3577 51.2634 18.5638C51.9927 18.7699 52.6348 19.1267 53.1897 19.634C54.1568 20.4901 54.6404 21.6634 54.6404 23.1537C54.6404 24.977 54.1014 26.2929 53.0232 27.1015C52.6586 27.3869 52.2305 27.6247 51.739 27.8149L55.8057 33.3561L53.2373 34.9257L48.5285 28.3144C48.3858 28.3302 48.148 28.3381 47.815 28.3381ZM50.5024 25.3179C51.0573 24.9373 51.3347 24.3032 51.3347 23.4153C51.3347 22.5116 51.1048 21.8457 50.6451 21.4176C50.2011 20.9896 49.2657 20.7755 47.8388 20.7755H47.2205V25.8173H47.4821C49.0517 25.8173 50.0584 25.6508 50.5024 25.3179ZM61.039 18.2547V34.1409H57.6144V18.2547H61.039ZM74.1062 20.9896H67.5424V24.5806H73.5354V27.2442H67.5424V34.1409H64.0941V18.2547H74.1062V20.9896ZM87.5541 34.1409H84.1771L83.0593 30.3834H78.4694L77.3755 34.1409H73.9033L78.9451 18.2547H82.5837L87.5541 34.1409ZM82.3221 27.7912L80.7525 21.5365L79.2067 27.7912H82.3221Z" fill="url(#paint4_linear_1_114)" shape-rendering="crispEdges"/>
<path d="M8.37585 20.9896H4.23782V18.2547H16.0098V20.9896H11.8004V34.1409H8.37585V20.9896ZM28.7963 34.1409H25.4192L24.3015 30.3834H19.7116L18.6176 34.1409H15.1455L20.1872 18.2547H23.8259L28.7963 34.1409ZM23.5643 27.7912L21.9947 21.5365L20.4488 27.7912H23.5643ZM42.3129 34.1409H38.9359L37.8181 30.3834H33.2282L32.1343 34.1409H28.6621L33.7039 18.2547H37.3425L42.3129 34.1409ZM37.0809 27.7912L35.5113 21.5365L33.9655 27.7912H37.0809ZM47.815 28.3381H47.2205V34.1409H43.7959V18.2547H48.3858C49.5907 18.2547 50.5499 18.3577 51.2634 18.5638C51.9927 18.7699 52.6348 19.1267 53.1897 19.634C54.1568 20.4901 54.6404 21.6634 54.6404 23.1537C54.6404 24.977 54.1014 26.2929 53.0232 27.1015C52.6586 27.3869 52.2305 27.6247 51.739 27.8149L55.8057 33.3561L53.2373 34.9257L48.5285 28.3144C48.3858 28.3302 48.148 28.3381 47.815 28.3381ZM50.5024 25.3179C51.0573 24.9373 51.3347 24.3032 51.3347 23.4153C51.3347 22.5116 51.1048 21.8457 50.6451 21.4176C50.2011 20.9896 49.2657 20.7755 47.8388 20.7755H47.2205V25.8173H47.4821C49.0517 25.8173 50.0584 25.6508 50.5024 25.3179ZM61.039 18.2547V34.1409H57.6144V18.2547H61.039ZM74.1062 20.9896H67.5424V24.5806H73.5354V27.2442H67.5424V34.1409H64.0941V18.2547H74.1062V20.9896ZM87.5541 34.1409H84.1771L83.0593 30.3834H78.4694L77.3755 34.1409H73.9033L78.9451 18.2547H82.5837L87.5541 34.1409ZM82.3221 27.7912L80.7525 21.5365L79.2067 27.7912H82.3221Z" fill="black" fill-opacity="0.2" shape-rendering="crispEdges"/>
</g>
<defs>
<filter id="filter0_bd_1_114" x="88.0364" y="-3.96364" width="43.9273" height="45.7454" filterUnits="userSpaceOnUse" color-interpolation-filters="sRGB">
<feFlood flood-opacity="0" result="BackgroundImageFix"/>
<feGaussianBlur in="BackgroundImage" stdDeviation="1.98182"/>
<feComposite in2="SourceAlpha" operator="in" result="effect1_backgroundBlur_1_114"/>
<feColorMatrix in="SourceAlpha" type="matrix" values="0 0 0 0 0 0 0 0 0 0 0 0 0 0 0 0 0 0 127 0" result="hardAlpha"/>
<feOffset dy="3.96364"/>
<feGaussianBlur stdDeviation="1.98182"/>
<feComposite in2="hardAlpha" operator="out"/>
<feColorMatrix type="matrix" values="0 0 0 0 0 0 0 0 0 0 0 0 0 0 0 0 0 0 0.25 0"/>
<feBlend mode="normal" in2="effect1_backgroundBlur_1_114" result="effect2_dropShadow_1_114"/>
<feBlend mode="normal" in="SourceGraphic" in2="effect2_dropShadow_1_114" result="shape"/>
</filter>
<filter id="filter1_bd_1_114" x="0.274182" y="14.291" width="91.2435" height="28.562" filterUnits="userSpaceOnUse" color-interpolation-filters="sRGB">
<feFlood flood-opacity="0" result="BackgroundImageFix"/>
<feGaussianBlur in="BackgroundImage" stdDeviation="1.98182"/>
<feComposite in2="SourceAlpha" operator="in" result="effect1_backgroundBlur_1_114"/>
<feColorMatrix in="SourceAlpha" type="matrix" values="0 0 0 0 0 0 0 0 0 0 0 0 0 0 0 0 0 0 127 0" result="hardAlpha"/>
<feOffset dy="3.96364"/>
<feGaussianBlur stdDeviation="1.98182"/>
<feComposite in2="hardAlpha" operator="out"/>
<feColorMatrix type="matrix" values="0 0 0 0 0 0 0 0 0 0 0 0 0 0 0 0 0 0 0.25 0"/>
<feBlend mode="normal" in2="effect1_backgroundBlur_1_114" result="effect2_dropShadow_1_114"/>
<feBlend mode="normal" in="SourceGraphic" in2="effect2_dropShadow_1_114" result="shape"/>
</filter>
<linearGradient id="paint0_linear_1_114" x1="103.027" y1="0.131956" x2="103.027" y2="23.8313" gradientUnits="userSpaceOnUse">
<stop stop-color="#FCC400"/>
<stop offset="0.162" stop-color="#FBC000"/>
<stop offset="0.307" stop-color="#FBB500"/>
<stop offset="0.446" stop-color="#FBA300"/>
<stop offset="0.581" stop-color="#FA8900"/>
<stop offset="0.712" stop-color="#FA6800"/>
<stop offset="0.842" stop-color="#F93F00"/>
<stop offset="0.967" stop-color="#F81000"/>
<stop offset="1" stop-color="#F80300"/>
</linearGradient>
<linearGradient id="paint1_linear_1_114" x1="100.115" y1="34.2947" x2="100.115" y2="21.2082" gradientUnits="userSpaceOnUse">
<stop stop-color="#9A3D2D"/>
<stop offset="1" stop-color="#1E4450"/>
</linearGradient>
<linearGradient id="paint2_linear_1_114" x1="116.973" y1="0.132458" x2="116.973" y2="23.8314" gradientUnits="userSpaceOnUse">
<stop stop-color="#FCC400"/>
<stop offset="0.162" stop-color="#FBC000"/>
<stop offset="0.307" stop-color="#FBB500"/>
<stop offset="0.446" stop-color="#FBA300"/>
<stop offset="0.581" stop-color="#FA8900"/>
<stop offset="0.712" stop-color="#FA6800"/>
<stop offset="0.842" stop-color="#F93F00"/>
<stop offset="0.967" stop-color="#F81000"/>
<stop offset="1" stop-color="#F80300"/>
</linearGradient>
<linearGradient id="paint3_linear_1_114" x1="114.062" y1="34.2947" x2="114.062" y2="21.2082" gradientUnits="userSpaceOnUse">
<stop stop-color="#9A3D2D"/>
<stop offset="1" stop-color="#1E4450"/>
</linearGradient>
<linearGradient id="paint4_linear_1_114" x1="80" y1="27" x2="82" y2="27.5" gradientUnits="userSpaceOnUse">
<stop offset="0.291667" stop-color="#FA6800"/>
<stop offset="0.447917" stop-color="#1E4450" stop-opacity="0.74"/>
</linearGradient>
</defs>
</svg>
