<svg width="36" height="34" viewBox="0 0 36 34" fill="none" xmlns="http://www.w3.org/2000/svg">
<g filter="url(#filter0_i_1_218)">
<path d="M22.054 16.9246L20.68 19.1577C20.68 19.1583 20.68 19.159 20.68 19.1595C20.68 19.1601 20.68 19.1607 20.679 19.1612C20.679 19.1616 20.678 19.1619 20.678 19.1622C20.677 19.1624 20.677 19.1626 20.676 19.1626L16.231 26.3913L10.407 16.9246L0 0H11.642L19.397 12.6102C19.401 12.6151 19.405 12.6151 19.405 12.62L22.054 16.9246Z" fill="url(#paint0_linear_1_218)"/>
<path d="M16.231 26.3913L16.051 26.6851L15.684 27.2776C15.68 27.2825 15.68 27.2874 15.676 27.2923L13.443 30.926L11.642 33.8545H0L0.969803 32.2777C0.970103 32.2739 0.9716 32.2704 0.9739 32.2679H0.977997L8.362 20.2497H8.366V20.2448L8.37 20.2399L8.619 19.8335L10.155 17.3315L10.407 16.9251L16.231 26.3913Z" fill="url(#paint1_linear_1_218)"/>
<g style="mix-blend-mode:multiply" opacity="0.15">
<g style="mix-blend-mode:multiply" opacity="0.15">
<g style="mix-blend-mode:multiply" opacity="0.15">
<path d="M16.231 26.3913L16.051 26.6851L15.685 27.2777C15.681 27.2825 15.681 27.2874 15.677 27.2923L13.443 30.926L13.301 30.5979L8.619 19.8335L10.155 17.3315L10.408 16.9251L16.231 26.3913Z" fill="black"/>
</g>
</g>
</g>
<g style="mix-blend-mode:multiply" opacity="0.25">
<g style="mix-blend-mode:multiply" opacity="0.25">
<g style="mix-blend-mode:multiply" opacity="0.25">
<path d="M20.676 19.1626L16.231 26.3913L16.051 26.6851L15.994 26.597C15.301 25.5147 14.601 24.4422 13.916 23.3452C13.227 22.2581 12.53 21.1758 11.854 20.0739L10.155 17.3315L10.407 16.9251L0 0C0.7335 1.04799 1.4425 2.12047 2.1556 3.18315C2.8769 4.24584 3.5737 5.32811 4.2787 6.40059C5.6764 8.56023 7.0605 10.7313 8.431 12.9138L10.469 16.2047L12.49 19.5103C13.166 20.6121 13.822 21.7287 14.491 22.8355C15.081 23.8198 15.66 24.8139 16.243 25.8031L17.151 24.4123C17.535 23.8247 17.922 23.2321 18.317 22.6494C19.103 21.4838 19.869 20.3134 20.676 19.1626Z" fill="black"/>
</g>
</g>
</g>
<g style="mix-blend-mode:multiply" opacity="0.25">
<g style="mix-blend-mode:multiply" opacity="0.25">
<g style="mix-blend-mode:multiply" opacity="0.25">
<path d="M15.676 27.2919L13.443 30.9256L11.642 33.8541H0C0.9698 33.7218 1.9397 33.6386 2.9095 33.57C3.3944 33.5357 3.8794 33.5064 4.3643 33.4868C4.8492 33.4672 5.3341 33.4329 5.819 33.4231C6.7929 33.3888 7.7628 33.3741 8.733 33.3692C9.218 33.3594 9.702 33.3692 10.187 33.3741C10.611 33.379 11.035 33.379 11.459 33.3888L12.38 31.9686C12.689 31.5132 12.991 31.0529 13.301 30.5974C13.35 30.524 13.403 30.4505 13.451 30.3771C14.169 29.3296 14.902 28.2958 15.676 27.2919Z" fill="black"/>
</g>
</g>
</g>
<g style="mix-blend-mode:screen" opacity="0.4">
<g style="mix-blend-mode:screen" opacity="0.4">
<g style="mix-blend-mode:screen" opacity="0.4">
<path d="M0.973701 32.2679H0.977501L0.969803 32.2773C0.970103 32.2737 0.971501 32.2703 0.973701 32.2679Z" fill="white"/>
</g>
</g>
</g>
<g style="mix-blend-mode:screen" opacity="0.4">
<g style="mix-blend-mode:screen" opacity="0.4">
<g style="mix-blend-mode:screen" opacity="0.4">
<path d="M8.366 20.2497C8.325 20.3476 7.9789 21.1655 7.4003 22.2869C7.0947 22.8893 6.7279 23.5798 6.3163 24.3046C6.1085 24.6669 5.9048 25.044 5.6766 25.4162C5.4484 25.7884 5.2243 26.1704 4.9961 26.5475C4.7597 26.9245 4.5274 27.2967 4.2952 27.664C4.0629 28.0313 3.8225 28.379 3.5983 28.7218C3.1419 29.4074 2.7019 30.0342 2.3147 30.5631C1.5894 31.5523 1.0433 32.1939 0.978104 32.2673L8.362 20.2497C8.366 20.2448 8.366 20.2497 8.366 20.2497Z" fill="white"/>
</g>
</g>
</g>
<g style="mix-blend-mode:screen" opacity="0.4">
<g style="mix-blend-mode:screen" opacity="0.4">
<g style="mix-blend-mode:screen" opacity="0.4">
<path d="M19.397 12.6102C18.667 11.6356 17.966 10.6317 17.282 9.62781C16.589 8.6141 15.913 7.5906 15.24 6.56219C14.568 5.53379 13.908 4.49069 13.26 3.4427C12.641 2.45837 12.046 1.45935 11.438 0.46523L9.495 0.421156L7.3471 0.333006C5.9168 0.254652 4.4865 0.166503 3.0562 0H11.642L19.397 12.6102Z" fill="white"/>
</g>
</g>
</g>
<g style="mix-blend-mode:screen" opacity="0.3">
<g style="mix-blend-mode:screen" opacity="0.3">
<g style="mix-blend-mode:screen" opacity="0.3">
<path d="M20.534 16.9246L2.4247 1.46915H11.027L18.468 13.57L18.476 13.5798L20.534 16.9246Z" fill="white"/>
</g>
</g>
</g>
<path d="M36 16.9246L34.627 19.1577C34.627 19.159 34.626 19.1603 34.626 19.1611C34.625 19.1621 34.624 19.1626 34.623 19.1626L30.177 26.3913L24.354 16.9251L13.946 0.00050354H25.589L33.343 12.6107C33.347 12.6156 33.351 12.6156 33.351 12.6205L36 16.9246Z" fill="url(#paint2_linear_1_218)"/>
<path d="M30.177 26.3913L29.998 26.6851L29.631 27.2776C29.627 27.2825 29.627 27.2874 29.623 27.2923L27.39 30.926L25.589 33.8545H13.946L14.916 32.2777C14.917 32.2756 14.917 32.2737 14.918 32.272C14.919 32.2703 14.921 32.2689 14.922 32.2679L22.306 20.2502H22.31V20.2453L22.314 20.2404L22.563 19.834L24.099 17.3315L24.352 16.9251L30.177 26.3913Z" fill="url(#paint3_linear_1_218)"/>
<g style="mix-blend-mode:multiply" opacity="0.15">
<g style="mix-blend-mode:multiply" opacity="0.15">
<g style="mix-blend-mode:multiply" opacity="0.15">
<path d="M30.177 26.3913L29.998 26.6851L29.631 27.2777C29.627 27.2825 29.627 27.2874 29.623 27.2923L27.39 30.926L27.247 30.5979L22.565 19.834L24.101 17.3315L24.354 16.9251L30.177 26.3913Z" fill="black"/>
</g>
</g>
</g>
<g style="mix-blend-mode:multiply" opacity="0.25">
<g style="mix-blend-mode:multiply" opacity="0.25">
<g style="mix-blend-mode:multiply" opacity="0.25">
<path d="M34.623 19.1628L30.177 26.3915L29.998 26.6853L29.941 26.5971C29.248 25.5149 28.547 24.4424 27.862 23.3454C27.174 22.2583 26.477 21.176 25.8 20.0741L24.101 17.3317L24.354 16.9253L13.946 0.000671387C14.68 1.04866 15.389 2.12114 16.102 3.18383C16.823 4.24651 17.52 5.32879 18.225 6.40127C19.623 8.56091 21.007 10.732 22.377 12.9145L24.415 16.2054L26.436 19.511C27.113 20.6128 27.769 21.7294 28.437 22.8361C29.028 23.8205 29.606 24.8146 30.189 25.8038L31.098 24.413C31.481 23.8254 31.868 23.2328 32.263 22.65C33.05 21.484 33.816 20.3136 34.623 19.1628Z" fill="black"/>
</g>
</g>
</g>
<g style="mix-blend-mode:multiply" opacity="0.25">
<g style="mix-blend-mode:multiply" opacity="0.25">
<g style="mix-blend-mode:multiply" opacity="0.25">
<path d="M29.623 27.2919L27.39 30.9256L25.589 33.8541H13.946C14.916 33.7218 15.886 33.6386 16.856 33.57C17.341 33.5357 17.826 33.5064 18.311 33.4868C18.796 33.4672 19.28 33.4329 19.765 33.4231C20.739 33.3888 21.709 33.3741 22.679 33.3692C23.164 33.3594 23.649 33.3692 24.134 33.3741C24.558 33.379 24.981 33.379 25.405 33.3888L26.326 31.9686C26.636 31.5132 26.937 31.0529 27.247 30.5974C27.296 30.524 27.349 30.4505 27.398 30.3771C28.115 29.3296 28.848 28.2958 29.623 27.2919Z" fill="black"/>
</g>
</g>
</g>
<g style="mix-blend-mode:screen" opacity="0.4">
<g style="mix-blend-mode:screen" opacity="0.4">
<g style="mix-blend-mode:screen" opacity="0.4">
<path d="M14.922 32.2679L14.914 32.2773C14.915 32.2751 14.916 32.2731 14.917 32.2715C14.918 32.2698 14.92 32.2686 14.922 32.2679Z" fill="white"/>
</g>
</g>
</g>
<g style="mix-blend-mode:screen" opacity="0.4">
<g style="mix-blend-mode:screen" opacity="0.4">
<g style="mix-blend-mode:screen" opacity="0.4">
<path d="M22.312 20.2497C22.272 20.3476 21.925 21.1655 21.347 22.2869C21.041 22.8893 20.674 23.5798 20.263 24.3046C20.055 24.6669 19.851 25.044 19.623 25.4162C19.395 25.7884 19.171 26.1704 18.942 26.5475C18.706 26.9245 18.474 27.2967 18.242 27.664C18.009 28.0313 17.769 28.379 17.545 28.7218C17.088 29.4074 16.648 30.0342 16.261 30.5631C15.536 31.5523 14.99 32.1939 14.925 32.2673L22.308 20.2497C22.312 20.2448 22.312 20.2497 22.312 20.2497Z" fill="white"/>
</g>
</g>
</g>
<g style="mix-blend-mode:screen" opacity="0.4">
<g style="mix-blend-mode:screen" opacity="0.4">
<g style="mix-blend-mode:screen" opacity="0.4">
<path d="M33.343 12.6102C32.614 11.6356 31.913 10.6317 31.228 9.62781C30.535 8.6141 29.859 7.5906 29.187 6.56219C28.514 5.53379 27.854 4.49069 27.206 3.4427C26.587 2.45837 25.992 1.45935 25.385 0.46523L23.441 0.421156L21.293 0.333006C19.863 0.254652 18.433 0.166503 17.003 0H25.588L33.343 12.6102Z" fill="white"/>
</g>
</g>
</g>
<g style="mix-blend-mode:screen" opacity="0.3">
<g style="mix-blend-mode:screen" opacity="0.3">
<g style="mix-blend-mode:screen" opacity="0.3">
<path d="M34.482 16.9246L16.373 1.46915H24.975L32.416 13.57L32.424 13.5798L34.482 16.9246Z" fill="white"/>
</g>
</g>
</g>
</g>
<defs>
<filter id="filter0_i_1_218" x="0" y="0" width="36" height="37.8181" filterUnits="userSpaceOnUse" color-interpolation-filters="sRGB">
<feFlood flood-opacity="0" result="BackgroundImageFix"/>
<feBlend mode="normal" in="SourceGraphic" in2="BackgroundImageFix" result="shape"/>
<feColorMatrix in="SourceAlpha" type="matrix" values="0 0 0 0 0 0 0 0 0 0 0 0 0 0 0 0 0 0 127 0" result="hardAlpha"/>
<feOffset dy="3.96364"/>
<feGaussianBlur stdDeviation="1.98182"/>
<feComposite in2="hardAlpha" operator="arithmetic" k2="-1" k3="1"/>
<feColorMatrix type="matrix" values="0 0 0 0 0 0 0 0 0 0 0 0 0 0 0 0 0 0 0.25 0"/>
<feBlend mode="normal" in2="shape" result="effect1_innerShadow_1_218"/>
</filter>
<linearGradient id="paint0_linear_1_218" x1="11.027" y1="0.131956" x2="11.027" y2="23.8313" gradientUnits="userSpaceOnUse">
<stop stop-color="#FCC400"/>
<stop offset="0.162" stop-color="#FBC000"/>
<stop offset="0.307" stop-color="#FBB500"/>
<stop offset="0.446" stop-color="#FBA300"/>
<stop offset="0.581" stop-color="#FA8900"/>
<stop offset="0.712" stop-color="#FA6800"/>
<stop offset="0.842" stop-color="#F93F00"/>
<stop offset="0.967" stop-color="#F81000"/>
<stop offset="1" stop-color="#F80300"/>
</linearGradient>
<linearGradient id="paint1_linear_1_218" x1="8.115" y1="34.2947" x2="8.115" y2="21.2082" gradientUnits="userSpaceOnUse">
<stop stop-color="#9A3D2D"/>
<stop offset="1" stop-color="#1E4450"/>
</linearGradient>
<linearGradient id="paint2_linear_1_218" x1="24.973" y1="0.132458" x2="24.973" y2="23.8314" gradientUnits="userSpaceOnUse">
<stop stop-color="#FCC400"/>
<stop offset="0.162" stop-color="#FBC000"/>
<stop offset="0.307" stop-color="#FBB500"/>
<stop offset="0.446" stop-color="#FBA300"/>
<stop offset="0.581" stop-color="#FA8900"/>
<stop offset="0.712" stop-color="#FA6800"/>
<stop offset="0.842" stop-color="#F93F00"/>
<stop offset="0.967" stop-color="#F81000"/>
<stop offset="1" stop-color="#F80300"/>
</linearGradient>
<linearGradient id="paint3_linear_1_218" x1="22.062" y1="34.2947" x2="22.062" y2="21.2082" gradientUnits="userSpaceOnUse">
<stop stop-color="#9A3D2D"/>
<stop offset="1" stop-color="#1E4450"/>
</linearGradient>
</defs>
</svg>
