<svg width="30" height="26" viewBox="0 0 30 26" fill="none" xmlns="http://www.w3.org/2000/svg">
<g filter="url(#filter0_d_4_154)">
<path d="M14.5758 4.78828L14.623 5.56683L13.8361 5.4715C10.9717 5.10606 8.46931 3.86673 6.34464 1.7853L5.30591 0.752529L5.03836 1.51519C4.47178 3.21529 4.83376 5.01072 6.01413 6.21827C6.64367 6.8856 6.50202 6.98093 5.41608 6.58371C5.03836 6.4566 4.70786 6.36127 4.67638 6.40894C4.56621 6.52016 4.94393 7.96604 5.24296 8.53804C5.65215 9.33248 6.48628 10.111 7.3991 10.5718L8.17028 10.9372L7.25746 10.9531C6.37611 10.9531 6.34464 10.969 6.43907 11.3027C6.75383 12.3355 7.99716 13.4318 9.38213 13.9084L10.3579 14.2421L9.50803 14.7506C8.24897 15.4814 6.76957 15.8945 5.29017 15.9263C4.58195 15.9422 3.99963 16.0058 3.99963 16.0534C3.99963 16.2123 5.9197 17.1021 7.03712 17.4516C10.3894 18.4844 14.3712 18.0395 17.3614 16.2759C19.4861 15.0207 21.6108 12.5261 22.6023 10.111C23.1374 8.82403 23.6725 6.47249 23.6725 5.34439C23.6725 4.6135 23.7197 4.51817 24.601 3.64429C25.1204 3.13585 25.6083 2.57974 25.7027 2.42085C25.8601 2.11896 25.8444 2.11896 25.0417 2.38907C23.704 2.86574 23.5151 2.80218 24.1761 2.08719C24.664 1.57875 25.2463 0.657196 25.2463 0.387087C25.2463 0.33942 25.0102 0.418864 24.7427 0.561863C24.4594 0.720751 23.8299 0.959083 23.3577 1.10208L22.5079 1.37219L21.7367 0.847862C21.3117 0.561863 20.7137 0.244088 20.3989 0.148755C19.5963 -0.0736882 18.3687 -0.0419106 17.6447 0.21231C15.6774 0.927306 14.4341 2.77041 14.5758 4.78828Z" fill="white"/>
</g>
<defs>
<filter id="filter0_d_4_154" x="-0.000366211" y="0" width="29.7814" height="26" filterUnits="userSpaceOnUse" color-interpolation-filters="sRGB">
<feFlood flood-opacity="0" result="BackgroundImageFix"/>
<feColorMatrix in="SourceAlpha" type="matrix" values="0 0 0 0 0 0 0 0 0 0 0 0 0 0 0 0 0 0 127 0" result="hardAlpha"/>
<feOffset dy="4"/>
<feGaussianBlur stdDeviation="2"/>
<feComposite in2="hardAlpha" operator="out"/>
<feColorMatrix type="matrix" values="0 0 0 0 0 0 0 0 0 0 0 0 0 0 0 0 0 0 0.25 0"/>
<feBlend mode="normal" in2="BackgroundImageFix" result="effect1_dropShadow_4_154"/>
<feBlend mode="normal" in="SourceGraphic" in2="effect1_dropShadow_4_154" result="shape"/>
</filter>
</defs>
</svg>
